<svg xmlns="http://www.w3.org/2000/svg" width="1200" height="630" viewBox="0 0 1200 630">
  <defs>
    <linearGradient id="g" x1="0" y1="0" x2="1" y2="1">
      <stop offset="0" stop-color="#a3e635"/>
      <stop offset="1" stop-color="#10b981"/>
    </linearGradient>
    <pattern id="grid" width="48" height="48" patternUnits="userSpaceOnUse">
      <path d="M48 0H0v48" fill="none" stroke="rgba(0,0,0,0.12)" stroke-width="1"/>
    </pattern>
  </defs>
  <rect width="1200" height="630" fill="url(#g)"/>
  <rect width="1200" height="630" fill="url(#grid)"/>
  <rect x="70" y="90" width="220" height="56" rx="28" fill="#09090b" opacity="0.85"/>
  <text x="180" y="127" font-family="monospace" font-size="26" fill="#fff" text-anchor="middle">UNIGO • CMS</text>
  <text x="70" y="300" font-family="Arial, sans-serif" font-size="96" font-weight="bold" fill="#09090b">UNIGO</text>
  <text x="70" y="380" font-family="Arial, sans-serif" font-size="96" font-weight="bold" fill="#09090b" opacity="0.55">Nepal</text>
  <text x="70" y="450" font-family="monospace" font-size="30" fill="#09090b">Consultancy website + full admin panel</text>
  <rect x="70" y="490" width="560" height="14" rx="7" fill="#09090b" opacity="0.25"/>
  <rect x="70" y="490" width="380" height="14" rx="7" fill="#09090b"/>
  <g opacity="0.9">
    <rect x="800" y="120" width="300" height="390" rx="36" fill="#09090b"/>
    <rect x="820" y="150" width="260" height="150" rx="18" fill="#fff" opacity="0.92"/>
    <rect x="820" y="320" width="260" height="24" rx="12" fill="#fff" opacity="0.5"/>
    <rect x="820" y="354" width="180" height="24" rx="12" fill="#fff" opacity="0.35"/>
    <rect x="820" y="400" width="260" height="60" rx="30" fill="url(#g)"/>
  </g>
</svg>
